# xmcd
#
# Track frame offsets:
#	150
#	22015
#	53774
#	68877
#	81376
#	108306
#	123864
#	147582
#	157577
#	173849
#	192602
#	209080
#	222039
#	236591
#
# Disc length: 3447 seconds
# Revision: 0
# Processed by: cddbd v1.5.2PL0 Copyright (c) Steve Scherf et al.
# Submitted via: dBpowerAMP V12.0
#
DISCID=cb0d750e
DTITLE=Various Artist - country folk sing micky newbury
DYEAR=2018
DGENRE=Country
TTITLE0=Kristina Olsen - Wish I Was
TTITLE1=Rod McCormack - Frisco Depot
TTITLE2=Douug Ashdown - Lovers
TTITLE3=Kim Cheshire - How I Love Them Old Songs
TTITLE4=Khristian Mizzi - How Many times (Must The Piper Be Paid)
TTITLE5=Gina Jeffreys - I Still Love You ( After All These Years)
TTITLE6=Eric Bogle - Heaven Help The Child
TTITLE7=Mike McClellan - She Even Woke Me Up To Say Goodbye
TTITLE8=Peter Titichener - Swiss Cottage Place
TTITLE9=Peter Daffy - Sweet Memories
TTITLE10=Bill Chambers - San Franxisco Mabel Joy
TTITLE11=Graeme Connors - Sail Away
TTITLE12=Greg Champion - Baby Why You Been Gone So Long
TTITLE13=Suzette Herft - American Trilogy
EXTD=
EXTT0=
EXTT1=
EXTT2=
EXTT3=
EXTT4=
EXTT5=
EXTT6=
EXTT7=
EXTT8=
EXTT9=
EXTT10=
EXTT11=
EXTT12=
EXTT13=
PLAYORDER=
